<svg xmlns="http://www.w3.org/2000/svg" width="660" height="415" viewBox="0 0 660 415"><rect width="100%" height="100%" fill="#DDDDDD"/><path fill="#999999" d="M178.165 175.86h10.55v64.35h-6.14q-1.43 0-2.38-.47-.96-.46-1.85-1.58l-33.6-42.9q.27 2.94.27 5.43v39.52h-10.55v-64.35h6.28q.75 0 1.31.07t.98.27q.42.2.82.58.4.37.89 1l33.73 43.07q-.13-1.55-.22-3.07-.09-1.51-.09-2.8v-39.12Zm43.35 17.98q5.07 0 9.23 1.65 4.16 1.64 7.12 4.67 2.96 3.03 4.56 7.39 1.6 4.36 1.6 9.74 0 5.43-1.6 9.79-1.6 4.36-4.56 7.43-2.96 3.07-7.12 4.72t-9.23 1.65q-5.12 0-9.3-1.65-4.19-1.65-7.15-4.72t-4.58-7.43q-1.62-4.36-1.62-9.79 0-5.38 1.62-9.74t4.58-7.39q2.96-3.03 7.15-4.67 4.18-1.65 9.3-1.65Zm0 38.58q5.69 0 8.43-3.82 2.74-3.83 2.74-11.22 0-7.39-2.74-11.26t-8.43-3.87q-5.79 0-8.57 3.9-2.78 3.89-2.78 11.23t2.78 11.19q2.78 3.85 8.57 3.85Zm99.23-56.56v9.84h-19.4v54.51h-11.97V185.7h-19.4v-9.84h50.77Zm16.42 21.45.67 5.16q2.13-4.09 5.07-6.43 2.94-2.33 6.94-2.33 3.16 0 5.08 1.38l-.72 8.23q-.22.8-.64 1.13-.42.34-1.14.34-.66 0-1.98-.22-1.31-.23-2.55-.23-1.83 0-3.25.54-1.43.53-2.56 1.53-1.14 1-2 2.43-.87 1.42-1.63 3.25v28.12h-10.99v-45.66h6.45q1.69 0 2.36.6.67.6.89 2.16Zm47.62 31.11v-7.7q-4.77.22-8.01.82-3.25.6-5.21 1.54-1.96.93-2.8 2.18-.85 1.24-.85 2.71 0 2.9 1.71 4.14 1.72 1.25 4.48 1.25 3.38 0 5.85-1.23 2.47-1.22 4.83-3.71Zm-23.23-23.99-1.96-3.51q7.88-7.21 18.96-7.21 4 0 7.16 1.31t5.34 3.65q2.18 2.34 3.32 5.58 1.13 3.25 1.13 7.12v28.84h-4.98q-1.56 0-2.41-.47-.84-.46-1.33-1.89l-.98-3.29q-1.74 1.56-3.38 2.74-1.65 1.17-3.43 1.98-1.78.8-3.8 1.22-2.03.42-4.48.42-2.89 0-5.34-.78-2.44-.78-4.22-2.33-1.78-1.56-2.76-3.87-.98-2.32-.98-5.39 0-1.73.58-3.45.58-1.71 1.89-3.27t3.4-2.94q2.09-1.38 5.14-2.4t7.1-1.67q4.05-.64 9.26-.78v-2.67q0-4.58-1.96-6.78t-5.65-2.2q-2.67 0-4.43.62-1.76.62-3.09 1.4-1.34.78-2.43 1.4-1.09.62-2.42.62-1.16 0-1.96-.6t-1.29-1.4Zm44.63-9.88h11.04v45.66h-11.04v-45.66Zm12.55-13.3q0 1.42-.58 2.67-.58 1.24-1.53 2.18-.96.93-2.25 1.49-1.29.56-2.76.56-1.42 0-2.69-.56t-2.21-1.49q-.93-.94-1.49-2.18-.55-1.25-.55-2.67 0-1.47.55-2.76.56-1.29 1.49-2.23.94-.93 2.21-1.49 1.27-.55 2.69-.55 1.47 0 2.76.55 1.29.56 2.25 1.49.95.94 1.53 2.23.58 1.29.58 2.76Zm9.83-7.17h11v66.13h-11v-66.13Zm30.66 38.05h20.74q0-2.14-.6-4.03-.6-1.89-1.8-3.31-1.2-1.43-3.05-2.25-1.85-.82-4.29-.82-4.77 0-7.5 2.71-2.74 2.72-3.5 7.7Zm28.04 6.63h-28.26q.27 3.52 1.25 6.08.98 2.55 2.58 4.22t3.8 2.49q2.21.83 4.88.83t4.6-.63q1.94-.62 3.38-1.37 1.45-.76 2.54-1.38 1.09-.63 2.11-.63 1.38 0 2.05 1.03l3.16 4q-1.82 2.14-4.09 3.58-2.27 1.45-4.74 2.32-2.47.87-5.03 1.22-2.56.36-4.96.36-4.76 0-8.86-1.58-4.09-1.58-7.12-4.67-3.02-3.1-4.76-7.66-1.74-4.56-1.74-10.57 0-4.67 1.52-8.79 1.51-4.11 4.34-7.16 2.82-3.05 6.89-4.83 4.08-1.78 9.19-1.78 4.32 0 7.97 1.38 3.65 1.38 6.27 4.03 2.63 2.65 4.12 6.49 1.49 3.85 1.49 8.79 0 2.5-.53 3.36-.54.87-2.05.87Zm20.51-21.45.67 5.16q2.14-4.09 5.07-6.43 2.94-2.33 6.95-2.33 3.16 0 5.07 1.38l-.71 8.23q-.22.8-.65 1.13-.42.34-1.13.34-.67 0-1.98-.22-1.32-.23-2.56-.23-1.83 0-3.25.54-1.42.53-2.56 1.53-1.13 1-2 2.43-.87 1.42-1.63 3.25v28.12h-10.99v-45.66h6.46q1.69 0 2.35.6.67.6.89 2.16Z"/></svg>