<svg width="20" height="20" viewBox="0 0 20 20" fill="none" xmlns="http://www.w3.org/2000/svg">
<path id="Vector" fill-rule="evenodd" clip-rule="evenodd" d="M8.875 0C3.97347 0 0 3.97347 0 8.875C0 13.7765 3.97347 17.75 8.875 17.75C10.9654 17.75 12.8869 17.0273 14.4035 15.8182L18.2926 19.7073C18.6831 20.0978 19.3162 20.0978 19.7068 19.7073C20.0973 19.3167 20.0973 18.6836 19.7068 18.293L15.8177 14.404C17.0271 12.8874 17.75 10.9656 17.75 8.875C17.75 3.97347 13.7765 0 8.875 0ZM2 8.875C2 5.07804 5.07804 2 8.875 2C12.672 2 15.75 5.07804 15.75 8.875C15.75 12.672 12.672 15.75 8.875 15.75C5.07804 15.75 2 12.672 2 8.875Z" fill="white"/>
</svg>
